#N canvas 72 23 1687 973 10;
#X msg 5 524 stop;
#X obj 369 943 writesf~ 2;
#X msg 880 903 start;
#X msg 735 853 stop;
#X msg 694 853 print;
#X text 724 898 1;
#X text 863 899 2;
#X text 733 873 CAMBIAR NOMBRE FICHERO CADA NUEVA REC.;
#X obj 865 340 threshold~ 1 3000 0.1 1000;
#X obj 865 363 bng 15 250 50 0 empty empty empty 17 7 0 10 -262144
-1 -1;
#X obj 865 311 *~ 5.5;
#N canvas 0 22 796 453 (subpatch) 0;
#X array array1 100 float 3;
#A 0 0 0 0 0 0 0 0 0 0 0 0 0 0 0 0 0 0 0 0 0 0 0 0 0 0 0 0 0 0 0 0
0 0 0 0 0 0 0 0 0 0 0 0 0 0 0 0 0 0 0 0 0 0 0 0 0 0 0 0 0 0 0 0 0 0
0 0 0 0 0 0 0 0 0 0 0 0 0 0 0 0 0 0 0 0 0 0 0 0 0 0 0 0 0 0 0 0 0 0
0;
#X coords 0 1 99 -1 200 140 1;
#X restore 1227 63 graph;
#X obj 1128 217 tabwrite~ array1;
#X obj 1128 108 bng 15 250 50 0 empty empty empty 17 7 0 10 -262144
-1 -1;
#X text 1190 128 msec.;
#X obj 1128 129 metro 160;
#X obj 1141 193 *~ 5.5;
#X obj 1008 78 dsp;
#X obj 1008 48 tgl 15 0 empty empty empty 17 7 0 10 -262144 -1 -1 1
1;
#X obj 1008 14 loadbang;
#N canvas 0 22 450 300 (subpatch) 0;
#X array \$0-array 500 float 3;
#A 0 0 0 0 0 0 0 0 0 0 0 0 0 0 0 0 0 0 0 0 0 0 0 0 0 0 0 0 0 0 0 0
0 0 0 0 0 0 0 0 0 0 0 0 0 0 0 0 0 0 0 0 0 0 0 0 0 0 0 0 0 0 0 0 0 0
0 0 0 0 0 0 0 0 0 0 0 0 0 0 0 0 0 0 0 0 0 0 0 0 0 0 0 0 0 0 0 0 0 0
0 0 0 0 0 0 0 0 0 0 0 0 0 0 0 0 0 0 0 0 0 0 0 0 0 0 0 0 0 0 0 0 0 0
0 0 0 0 0 0 0 0 0 0 0 0 0 0 0 0 0 0 0 0 0 0 0 0 0 0 0 0 0 0 0 0 0 0
0 0 0 0 0 0 0 0 0 0 0 0 0 0 0 0 0 0 0 0 0 0 0 0 0 0 0 0 0 0 0 0 0 0
0 0 0 0 0 0 0 0 0 0 0 0 0 0 0 0 0 0 0 0 0 0 0 0 0 0 0 0 0 0 0 0 0 0
0 0 0 0 0 0 0 0 0 0 0 0 0 0 0 0 0 0 0 0 0 0 0 0 0 0 0 0 0 0 0 0 0 0
0 0 0 0 0 0 0 0 0 0 0 0 0 0 0 0 0 0 0 0 0 0 0 0 0 0 0 0 0 0 0 0 0 0
0 0 0 0 0 0 0 0 0 0 0 0 0 0 0 0 0 0 0 0 0 0 0 0 0 0 0 0 0 0 0 0 0 0
0 0 0 0 0 0 0 0 0 0 0 0 0 0 0 0 0 0 0 0 0 0 0 0 0 0 0 0 0 0 0 0 0 0
0 0 0 0 0 0 0 0 0 0 0 0 0 0 0 0 0 0 0 0 0 0 0 0 0 0 0 0 0 0 0 0 0 0
0 0 0 0 0 0 0 0 0 0 0 0 0 0 0 0 0 0 0 0 0 0 0 0 0 0 0 0 0 0 0 0 0 0
0 0 0 0 0 0 0 0 0 0 0 0 0 0 0 0 0 0 0 0 0 0 0 0 0 0 0 0 0 0 0 0 0 0
0 0 0 0 0 0 0 0 0 0 0 0 0 0 0 0 0 0 0 0 0 0 0 0 0 0 0;
#X coords 0 1 500 -1 500 340 1 0 0;
#X restore 1071 513 graph;
#X obj 1071 453 metro 160;
#X obj 1071 476 tabwrite~ \$0-array;
#X text 1145 452 msec;
#X floatatom 344 168 5 0 0 0 - - -;
#X obj 345 4 adc~;
#X obj 344 140 fiddle~;
#X obj 60 572 readsf~;
#X obj 251 576 square_root_pan~;
#X obj 43 936 dac~ 1 2;
#X obj 590 220 moses 60;
#X floatatom 589 242 5 0 0 0 - - -;
#X obj 584 657 square_root_pan~;
#X obj 435 612 square_root_pan~;
#X floatatom 589 285 5 0 0 0 - - -;
#X obj 589 262 / 127;
#X obj 344 195 / 127;
#X floatatom 344 217 5 0 0 0 - - -;
#X obj 344 435 vsl 15 128 0 1 0 0 empty empty empty 0 -9 0 10 -262144
-1 -1 0 1;
#X obj 59 449 bng 15 250 50 0 empty empty empty 17 7 0 10 -262144 -1
-1;
#X obj 59 493 bng 15 250 50 0 empty empty empty 17 7 0 10 -262144 -1
-1;
#X text 7 3 [Z.A.M]: Zona Autónoma Militarizada \, Miguel Oliveros.
Madrid 2016;
#X text 940 390 msec.;
#X obj 776 722 equal_power_pan~;
#X obj 1006 616 vsl 15 128 0 127 0 0 empty empty empty 0 -9 0 10 -262144
-1 -1 0 1;
#X floatatom 896 441 5 0 0 0 - - -;
#X obj 871 671 hsl 128 15 0 127 0 0 empty empty empty -2 -8 0 10 -262144
-1 -1 0 1;
#X obj 867 416 random 127;
#X obj 683 391 hsl 128 15 0 1 0 0 empty empty empty -2 -8 0 10 -262144
-1 -1 0 1;
#X floatatom 635 244 5 0 0 0 - - -;
#X floatatom 635 287 5 0 0 0 - - -;
#X obj 635 264 / 127;
#X text 753 257 msec.;
#X floatatom 692 303 5 0 0 0 - - -;
#X obj 678 280 random 127;
#X obj 678 237 bng 15 250 50 0 empty empty empty 17 7 0 10 -262144
-1 -1;
#X floatatom 679 354 5 0 0 0 - - -;
#X obj 679 331 / 127;
#X floatatom 541 361 5 0 0 0 - - -;
#X obj 527 338 random 127;
#X obj 527 315 metro 1200;
#X obj 527 295 bng 15 250 50 0 empty empty empty 17 7 0 10 -262144
-1 -1;
#X floatatom 528 412 5 0 0 0 - - -;
#X obj 528 389 / 127;
#X obj 528 472 vsl 15 128 0 1 0 0 empty empty empty 0 -9 0 10 -262144
-1 -1 0 1;
#X obj 866 393 metro 2000;
#X obj 678 257 metro 1600;
#X text 183 524 CAMBIAR NOMBRE FICHERO;
#X msg 742 901 open ZAM.wav;
#X msg 59 525 open zam.wav \, 1;
#X obj 627 447 vsl 15 128 0 1 0 0 empty empty empty 0 -9 0 10 -262144
-1 -1 0 1;
#X obj 379 523 hsl 128 15 0 1 0 0 empty empty empty -2 -8 0 10 -262144
-1 -1 0 1;
#X obj 199 471 hsl 128 15 0 1 0 0 empty empty empty -2 -8 0 10 -262144
-1 -1 0 1;
#X obj 59 470 metro 4.6266e+06;
#X connect 0 0 27 0;
#X connect 2 0 1 0;
#X connect 3 0 1 0;
#X connect 4 0 1 0;
#X connect 8 0 9 0;
#X connect 9 0 65 0;
#X connect 10 0 8 0;
#X connect 13 0 15 0;
#X connect 13 0 21 0;
#X connect 15 0 12 0;
#X connect 16 0 12 0;
#X connect 18 0 17 0;
#X connect 18 0 13 0;
#X connect 18 0 39 0;
#X connect 19 0 18 0;
#X connect 21 0 22 0;
#X connect 24 0 30 0;
#X connect 24 0 36 0;
#X connect 25 0 10 0;
#X connect 25 0 16 0;
#X connect 25 0 26 0;
#X connect 26 0 24 0;
#X connect 27 0 1 0;
#X connect 27 0 1 1;
#X connect 27 0 22 0;
#X connect 27 0 29 0;
#X connect 27 0 29 1;
#X connect 27 0 28 0;
#X connect 27 0 32 0;
#X connect 27 0 33 0;
#X connect 27 0 43 0;
#X connect 27 1 22 0;
#X connect 27 1 29 0;
#X connect 27 1 29 1;
#X connect 27 1 28 0;
#X connect 27 1 32 0;
#X connect 27 1 33 0;
#X connect 27 1 1 1;
#X connect 27 1 43 0;
#X connect 28 0 29 0;
#X connect 28 0 1 0;
#X connect 28 1 29 1;
#X connect 28 1 1 1;
#X connect 30 0 31 0;
#X connect 30 0 61 0;
#X connect 30 1 49 0;
#X connect 30 1 55 0;
#X connect 31 0 35 0;
#X connect 32 0 29 0;
#X connect 32 0 1 0;
#X connect 32 1 29 1;
#X connect 32 1 1 1;
#X connect 33 0 29 0;
#X connect 33 0 1 0;
#X connect 33 1 29 1;
#X connect 33 1 1 1;
#X connect 35 0 34 0;
#X connect 36 0 37 0;
#X connect 37 0 38 0;
#X connect 37 0 72 0;
#X connect 38 0 28 1;
#X connect 39 0 73 0;
#X connect 40 0 69 0;
#X connect 43 0 29 0;
#X connect 43 1 29 1;
#X connect 44 0 43 1;
#X connect 46 0 43 1;
#X connect 47 0 45 0;
#X connect 47 0 44 0;
#X connect 47 0 46 0;
#X connect 48 0 32 1;
#X connect 49 0 51 0;
#X connect 51 0 50 0;
#X connect 54 0 53 0;
#X connect 54 0 57 0;
#X connect 55 0 66 0;
#X connect 56 0 48 0;
#X connect 56 0 70 0;
#X connect 57 0 56 0;
#X connect 59 0 58 0;
#X connect 59 0 63 0;
#X connect 60 0 59 0;
#X connect 61 0 60 0;
#X connect 62 0 64 0;
#X connect 62 0 71 0;
#X connect 63 0 62 0;
#X connect 64 0 33 1;
#X connect 65 0 47 0;
#X connect 66 0 54 0;
#X connect 68 0 1 0;
#X connect 69 0 27 0;
#X connect 70 0 32 1;
#X connect 71 0 33 1;
#X connect 72 0 28 1;
#X connect 73 0 40 0;
